<?xml version="1.0" encoding="utf-8"?>
<!-- Generator: Adobe Illustrator 22.1.0, SVG Export Plug-In . SVG Version: 6.00 Build 0)  -->
<svg version="1.1" id="Layer_1" xmlns="http://www.w3.org/2000/svg" xmlns:xlink="http://www.w3.org/1999/xlink" x="0px" y="0px"
	 viewBox="0 0 1750 600" style="enable-background:new 0 0 1750 600;" xml:space="preserve">
<style type="text/css">
	.st0{fill:url(#SVGID_1_);}
	.st1{fill:#FFFFFF;}
	.st2{fill:url(#SVGID_2_);}
	.st3{fill:url(#SVGID_3_);}
	.st4{fill:#80C34B;}
	.st5{fill:#AFAFB0;}
</style>
<g>
	<g>
		<linearGradient id="SVGID_1_" gradientUnits="userSpaceOnUse" x1="264.627" y1="530.8698" x2="264.627" y2="70.255">
			<stop  offset="0" style="stop-color:#0FB04C"/>
			<stop  offset="1" style="stop-color:#ADD041"/>
		</linearGradient>
		<path class="st0" d="M416.6,324.3c-9.3-14.1-20.7-24.5-34.3-31.4c11.4-5.3,21.1-13.9,29.3-25.8c8.2-11.9,12.3-27,12.3-45.5
			c0-24.1-8-44.1-24.1-60c-16.1-15.9-39.7-23.9-71-23.9h-22.1v-54c0-7.4-6.1-13.4-13.5-13.4H292c-7.4,0-13.5,6-13.5,13.4v54h-53.8
			v-54c0-7.4-6.1-13.4-13.5-13.4h-1.1c-7.4,0-13.5,6-13.5,13.4v54.1h-30.2c-7.4,0-13.5,6-13.5,13.4v1.1c0,7.4,6.1,13.4,13.5,13.4
			H195V228c-30.2,9.7-61.5,19.3-93.8,12.3c-0.8-0.2-1.6,0.2-2.1,0.8c-0.5,0.7-0.5,1.6,0,2.2c28,41.1,61.7,64.7,95.9,76.3V438h-28.6
			c-7.4,0-13.5,6-13.5,13.4v1.1c0,7.4,6.1,13.4,13.5,13.4h30.2v51.6c0,7.4,6.1,13.4,13.5,13.4h1.1c7.4,0,13.5-6,13.5-13.4v-51.6
			h53.8v51.6c0,7.4,6.1,13.4,13.5,13.4h1.1c7.4,0,13.5-6,13.5-13.4v-51.6h25.5c20.5,0,38.2-4.3,53-12.9c14.8-8.6,26.1-20,33.8-34.2
			c7.7-14.2,11.6-29.5,11.6-45.7C430.6,354.6,425.9,338.4,416.6,324.3z M322.7,165.8c23.3,0,41.1,4.7,53.2,14.1
			c12.1,9.4,18.2,23.3,18.2,41.7c0,18.8-6.1,33.2-18.2,43.4c-6.5,5.4-14.5,9.3-24.1,11.9c-35.9-17.3-72-24.8-109.2-22.7
			c33.9-8.6,70.2-13.8,104.9,1.4c0.9,0.4,1.9,0.1,2.4-0.7c0.6-0.8,0.5-1.8-0.1-2.5c-43-46.4-84.6-44.3-125.1-33.5v-53.2H322.7z
			 M381.4,419.7c-12.9,12-30.9,18.1-53.9,18.1H224.8v-111c41.2,6,80.9-3.3,109.9-18.2c19.6,1.1,35.1,7,46.7,17.6
			c12.9,11.9,19.4,27.5,19.4,46.9C400.7,392.1,394.3,407.7,381.4,419.7z"/>
	</g>
	<path class="st1" d="M264.7,97.4"/>
	<linearGradient id="SVGID_2_" gradientUnits="userSpaceOnUse" x1="209.8287" y1="362.2939" x2="209.8287" y2="319.6432">
		<stop  offset="0" style="stop-color:#0FB04C;stop-opacity:0"/>
		<stop  offset="1" style="stop-color:#0C6A36"/>
	</linearGradient>
	<path class="st2" d="M195,319.6c0,0,12.6,4.7,29.8,7.1v35.5c-17.2-2.5-29.8-7.2-29.8-7.2L195,319.6z"/>
	<linearGradient id="SVGID_3_" gradientUnits="userSpaceOnUse" x1="377.8239" y1="325.5671" x2="363.6136" y2="295.093">
		<stop  offset="0" style="stop-color:#0FB04C;stop-opacity:0"/>
		<stop  offset="1" style="stop-color:#057B3E"/>
	</linearGradient>
	<path class="st3" d="M334.7,308.6c26.8-3.7,47.6-15.7,47.6-15.7c14.9,7.4,24.1,18.5,24.1,18.5s-12.7,8.8-28.9,11.5
		c0,0-14.1-12.5-41.1-14.2L334.7,308.6z"/>
</g>
<g>
	<path class="st4" d="M534,145.5v319.6c0,4.1-1.9,6.2-5.7,6.2h-15.1c-3.5,0-5.2-2.1-5.2-6.2V145.5c0-4.1,1.7-6.2,5.2-6.2h15.1
		C532.1,139.3,534,141.4,534,145.5z"/>
	<path class="st4" d="M718.9,471.3h-15.1c-3.8,0-5.7-2.1-5.7-6.2V167.2c0-3.1-1.7-4.6-5.2-4.6h-75.5c-4.2,0-6.2-1.9-6.2-5.7V145
		c0-3.8,2.1-5.7,6.2-5.7h187.5c4.2,0,6.3,1.9,6.3,5.7v11.9c0,3.8-2.1,5.7-6.3,5.7h-75.5c-3.5,0-5.2,1.5-5.2,4.6v297.9
		C724.1,469.3,722.4,471.3,718.9,471.3z"/>
	<path class="st4" d="M991.8,471.3h-56.8c-22.6,0-40.4-6.5-53.4-19.6c-13-13.1-19.5-31-19.5-53.7V212.7c0-22.7,6.5-40.6,19.5-53.7
		c13-13.1,30.8-19.6,53.4-19.6h56.8c22.6,0,40.5,6.5,53.6,19.6c13.2,13.1,19.8,31,19.8,53.7v23.2c0,4.1-1.9,6.2-5.7,6.2h-15.1
		c-3.8,0-5.7-2.1-5.7-6.2v-22.2c0-16.5-4.2-29.2-12.5-37.9c-8.3-8.8-20.5-13.2-36.5-13.2h-52.6c-16,0-28.1,4.5-36.5,13.4
		c-8.3,9-12.5,21.5-12.5,37.7V397c0,16.2,4.2,28.7,12.5,37.7c8.3,9,20.5,13.4,36.5,13.4h52.6c16,0,28.1-4.4,36.5-13.2
		c8.3-8.8,12.5-21.4,12.5-37.9v-68.2c0-3.1-1.6-4.6-4.7-4.6h-59.9c-3.8,0-5.7-1.9-5.7-5.7v-11.9c0-3.8,1.9-5.7,5.7-5.7h81.3
		c6.6,0,9.9,3.4,9.9,10.3V398c0,22.7-6.6,40.6-19.8,53.7C1032.3,464.8,1014.4,471.3,991.8,471.3z"/>
	<path class="st5" d="M1335.1,471.3h-160.9c-3.5,0-5.2-2.1-5.2-6.2V145.5c0-4.1,1.7-6.2,5.2-6.2h160.9c4.2,0,6.3,1.9,6.3,5.7v11.9
		c0,3.8-2.1,5.7-6.3,5.7h-134.9c-3.5,0-5.2,1.5-5.2,4.6V286c0,3.1,1.7,4.6,5.2,4.6h120.3c3.8,0,5.7,1.9,5.7,5.7v11.9
		c0,3.8-1.9,5.7-5.7,5.7h-120.3c-3.5,0-5.2,1.5-5.2,4.6v124.9c0,3.1,1.7,4.6,5.2,4.6h134.9c4.2,0,6.3,1.9,6.3,5.7v11.9
		C1341.3,469.4,1339.3,471.3,1335.1,471.3z"/>
	<path class="st5" d="M1445.5,471.3h-17.7c-3.8,0-4.9-2.1-3.1-6.2l95.3-168.8l-90.1-150.8c-1-1.7-1.1-3.2-0.3-4.4
		c0.9-1.2,2.2-1.8,3.9-1.8h16.1c4.5,0,7.6,2.1,9.4,6.2l78.1,132.7h2.1l77.1-132.7c2.4-4.1,5.4-6.2,8.9-6.2h17.2
		c4.5,0,5.7,2.1,3.6,6.2l-90.1,150.2l94.8,169.3c2.4,4.1,1.4,6.2-3.1,6.2h-17.7c-3.1,0-5.7-1.7-7.8-5.2l-83.3-149.7h-2.1
		l-83.3,149.7C1451.2,469.6,1448.6,471.3,1445.5,471.3z"/>
</g>
</svg>
